<?xml version="1.0" encoding="UTF-8"?>
<svg id="_レイヤー_2" data-name="レイヤー_2" xmlns="http://www.w3.org/2000/svg" viewBox="0 0 64 64">
  <defs>
    <style>
      .cls-1 {
        fill: none;
      }

      .cls-2 {
        fill: #16c000;
      }

      .cls-3 {
        fill: green;
      }
    </style>
  </defs>
  <g id="_レイヤー_1-2" data-name="レイヤー_1">
    <g>
      <rect class="cls-1" width="64" height="64"/>
      <path class="cls-1" d="M25.1567,41.4316c-.3931,1.0342-.5889,2.2119-.5889,3.5342v.3931c.9241-.3048,1.715-.7637,2.3711-1.3784,1.3022-1.2188,1.9531-2.9443,1.9531-5.1768,0-.5321-.04-1.0331-.1169-1.5055-.7784.3679-1.4706.8744-2.0687,1.5299-.6411.7031-1.1572,1.5713-1.5498,2.6035Z"/>
      <path class="cls-1" d="M24.1958,36.4102h.186c.5366-.7852,1.1157-1.5088,1.7358-2.1699.2064-.2201.4329-.4115.6553-.6086-.7096-.5985-1.573-1.0255-2.5771-1.2952v4.0737Z"/>
      <path class="cls-1" d="M25.0479,24.8232c1.2402-1.0547,1.8604-2.5732,1.8604-4.5576,0-2.2314-.5581-3.8018-1.6743-4.7119-1.1157-.9082-2.728-1.3643-4.8359-1.3643H7.75v12.2139h12.6479c1.8604,0,3.4102-.5264,4.6499-1.5801Z"/>
      <rect class="cls-1" x="7.75" y="31.9834" width="9.75" height="13.8262"/>
      <g>
        <path class="cls-3" d="M24.3818,36.4102h-.186v-4.0737c-.8223-.2208-1.7239-.353-2.7437-.353h-3.9521v13.8262h3.9521c1.1685,0,2.2065-.1509,3.1157-.4507v-.3931c0-1.3223.1958-2.5.5889-3.5342.3926-1.0322.9087-1.9004,1.5498-2.6035.5981-.6555,1.2902-1.162,2.0687-1.5299-.2394-1.4722-.8503-2.6556-1.8362-3.5472-.0502-.0454-.1142-.0757-.166-.1194-.2224.1971-.4489.3885-.6553.6086-.6201.6611-1.1992,1.3848-1.7358,2.1699Z"/>
        <path class="cls-3" d="M61.1787,33.5576c-1.8813-1.6523-4.5161-2.4795-7.9048-2.4795-2.356,0-4.3198.4756-5.8901,1.4258-1.5713.9512-2.9556,2.2529-4.1538,3.9062-.7036-1.8184-1.8911-3.1621-3.5654-4.0303-1.6738-.8682-3.4824-1.3018-5.4248-1.3018-.2375,0-.4446.0282-.6722.0374.3483.3544.6752.7317.9666,1.1472,1.3784,1.9683,2.0771,4.4255,2.103,7.3668.376,1.0133.5787,2.2618.5787,3.7865v20.584h7.0679v-18.7861c0-2.7275.5366-4.8359,1.6123-6.3242,1.0742-1.4873,2.8101-2.2314,5.208-2.2314,1.3638,0,2.438.207,3.2236.6201.7847.4131,1.374,1.002,1.7671,1.7666.3926.7656.6299,1.6738.7129,2.7285.0825,1.0537.124,2.2217.124,3.5029v18.7236h7.0684v-22.1338c0-3.8848-.9409-6.6543-2.8213-8.3086Z"/>
        <path class="cls-3" d="M17.5,52.1338v11.8662h7.0679v-12.1482c-1.3011.1833-2.7058.282-4.2319.282h-2.8359Z"/>
        <path class="cls-3" d="M33.5676,31.1155c-1.0003.0408-1.9296.1472-2.738.366-.9917.2686-1.8706.6299-2.6348,1.085-.5104.3036-.9762.67-1.4219,1.0652.0518.0437.1158.074.166.1194.9859.8916,1.5968,2.0751,1.8362,3.5472.0554-.0262.1074-.0577.1638-.0824.8467-.3721,1.7251-.5576,2.6348-.5576,2.1489,0,3.627.5684,4.4331,1.7051.2556.3604.4558.7959.6303,1.2662-.0259-2.9413-.7245-5.3986-2.103-7.3668-.2914-.4155-.6183-.7928-.9666-1.1472Z"/>
      </g>
      <g>
        <path class="cls-2" d="M31.5737,36.6582c-.9097,0-1.7881.1855-2.6348.5576-.0563.0247-.1083.0562-.1638.0824.0768.4724.1169.9734.1169,1.5055,0,2.2324-.6509,3.958-1.9531,5.1768-.6561.6147-1.447,1.0736-2.3711,1.3784v6.4929c1.1305-.1593,2.1851-.3806,3.146-.679,2.0664-.6406,3.7607-1.5088,5.084-2.6045,1.3228-1.0947,2.2944-2.3965,2.9141-3.9053.6201-1.5088.9302-3.1309.9302-4.8672,0-.0566-.0045-.1101-.0049-.1664-.1745-.4703-.3748-.9059-.6303-1.2662-.8062-1.1367-2.2842-1.7051-4.4331-1.7051Z"/>
        <path class="cls-2" d="M7.75,45.8096v-13.8262h9.75v-.0371h6.6958v.3901c1.0042.2697,1.8676.6967,2.5771,1.2952.4457-.3951.9114-.7616,1.4219-1.0652.7642-.4551,1.6431-.8164,2.6348-1.085.8083-.2188,1.7377-.3252,2.738-.366-1.3315-1.3542-3.0712-2.2688-5.2336-2.7278v-.124c2.0249-.8682,3.5854-2.0977,4.6812-3.6885,1.0947-1.5908,1.6431-3.5029,1.6431-5.7354,0-3.6787-1.1992-6.4268-3.5962-8.2461-2.3975-1.8184-5.5801-2.7275-9.5479-2.7275H0v44.2676h17.5v-6.3242H7.75ZM7.75,14.1895h12.6479c2.1079,0,3.7202.4561,4.8359,1.3643,1.1162.9102,1.6743,2.4805,1.6743,4.7119,0,1.9844-.6201,3.5029-1.8604,4.5576-1.2397,1.0537-2.7896,1.5801-4.6499,1.5801H7.75v-12.2139Z"/>
        <path class="cls-2" d="M21.4521,45.8096h-3.9521v6.3242h2.8359c1.5261,0,2.9308-.0986,4.2319-.282v-6.4929c-.9092.2998-1.9473.4507-3.1157.4507Z"/>
        <path class="cls-2" d="M24.1958,32.3364v-.3901h-6.6958v.0371h3.9521c1.0197,0,1.9213.1322,2.7437.353Z"/>
      </g>
    </g>
  </g>
</svg>