<?xml version="1.0" encoding="UTF-8"?>
<svg id="_レイヤー_2" data-name="レイヤー_2" xmlns="http://www.w3.org/2000/svg" xmlns:xlink="http://www.w3.org/1999/xlink" viewBox="0 0 168 56">
  <defs>
    <style>
      .cls-1 {
        fill: none;
      }

      .cls-2 {
        fill: #007000;
      }

      .cls-3 {
        fill: #16c000;
      }

      .cls-4 {
        fill: #00b000;
      }

      .cls-5 {
        fill: green;
      }

      .cls-6 {
        fill: url(#_名称未設定グラデーション_22);
      }
    </style>
    <linearGradient id="_名称未設定グラデーション_22" data-name="名称未設定グラデーション 22" x1="75.38" y1="26.6331" x2="75.38" y2="40.2651" gradientUnits="userSpaceOnUse">
      <stop offset=".2" stop-color="green"/>
      <stop offset=".8" stop-color="#00c000"/>
    </linearGradient>
  </defs>
  <g id="_レイヤー_1-2" data-name="レイヤー_1">
    <g>
      <rect class="cls-1" width="168" height="56"/>
      <g>
        <path class="cls-1" d="M25.1567,33.4316c-.3931,1.0342-.5889,2.2119-.5889,3.5342v.3931c.9241-.3048,1.715-.7637,2.3711-1.3784,1.3022-1.2188,1.9531-2.9443,1.9531-5.1768,0-.5321-.04-1.0331-.1169-1.5055-.7784.3679-1.4706.8744-2.0687,1.5299-.6411.7031-1.1572,1.5713-1.5498,2.6035Z"/>
        <path class="cls-1" d="M24.1958,28.4102h.186c.5366-.7852,1.1157-1.5088,1.7358-2.1699.2064-.2201.4329-.4115.6553-.6086-.7096-.5985-1.573-1.0255-2.5771-1.2952v4.0737Z"/>
        <path class="cls-1" d="M25.0479,16.8232c1.2402-1.0547,1.8604-2.5732,1.8604-4.5576,0-2.2314-.5581-3.8018-1.6743-4.7119-1.1157-.9082-2.728-1.3643-4.8359-1.3643H7.75v12.2139h12.6479c1.8604,0,3.4102-.5264,4.6499-1.5801Z"/>
        <rect class="cls-1" x="7.75" y="23.9834" width="9.75" height="13.8262"/>
        <path class="cls-1" d="M25.0479,16.957c1.2402-1.0547,1.8604-2.5732,1.8604-4.5576,0-2.2314-.5581-3.8018-1.6743-4.7119-1.1157-.9082-2.728-1.3643-4.8359-1.3643H7.75v12.2139h12.6479c1.8604,0,3.4102-.5264,4.6499-1.5801Z"/>
        <path class="cls-1" d="M24.1958,28.4102h.186c.5366-.7852,1.1157-1.5088,1.7358-2.1699.1808-.1929.3809-.358.574-.5332-.6944-.5659-1.5276-.9768-2.4959-1.2368v3.9399Z"/>
        <rect class="cls-1" x="7.75" y="24.1172" width="9.75" height="13.8262"/>
        <path class="cls-1" d="M25.1567,33.4316c-.3931,1.0342-.5889,2.2119-.5889,3.5342v.5269c.9241-.3048,1.715-.7637,2.3711-1.3784,1.3022-1.2188,1.9531-2.9443,1.9531-5.1768,0-.5789-.0486-1.1199-.1395-1.6279-.7691.3671-1.4539.8694-2.0461,1.5186-.6411.7031-1.1572,1.5713-1.5498,2.6035Z"/>
        <path class="cls-1" d="M56.8076,33.7734c-.083-1.0547-.3203-1.9629-.7129-2.7285-.3931-.7646-.9824-1.3535-1.7671-1.7666-.7856-.4131-1.8599-.6201-3.2236-.6201-1.8454,0-3.2946.4453-4.356,1.3262v1.8828c0,2.8115.5366,4.7959,1.6118,5.9521,1.0742,1.1582,2.583,1.7363,4.5259,1.7363,1.4883,0,2.728-.2266,3.7202-.6816.1139-.0522.2167-.1138.3257-.17v-1.4276c0-1.2812-.0415-2.4492-.124-3.5029Z"/>
        <path class="cls-3" d="M31.5737,28.6582c-.9097,0-1.7881.1855-2.6348.5576-.0641.0281-.1235.0637-.1863.0938.0909.5081.1395,1.0491.1395,1.6279,0,2.2324-.6509,3.958-1.9531,5.1768-.6561.6147-1.447,1.0736-2.3711,1.3784v6.4929c1.1305-.1593,2.1851-.3806,3.146-.679,2.0664-.6406,3.7607-1.5088,5.084-2.6045,1.3228-1.0947,2.2944-2.3965,2.9141-3.9053.6201-1.5088.9302-3.1309.9302-4.8672,0-.1068-.0076-.2081-.0093-.3137-.1736-.4651-.3727-.8956-.6259-1.2527-.8062-1.1367-2.2842-1.7051-4.4331-1.7051Z"/>
        <path class="cls-3" d="M7.75,37.9434v-13.8262h9.75v-.1709h6.6958v.5239c.9683.26,1.8015.6709,2.4959,1.2368.469-.4257.9611-.8184,1.5031-1.1406.7642-.4551,1.6431-.8164,2.6348-1.085.7752-.21,1.6652-.3132,2.617-.3593-1.3153-1.286-3.0168-2.1559-5.1126-2.6007v-.124c2.0249-.8682,3.5854-2.0977,4.6812-3.6885,1.0947-1.5908,1.6431-3.5029,1.6431-5.7354,0-3.6787-1.1992-6.4268-3.5962-8.2461-2.3975-1.8184-5.5801-2.7275-9.5479-2.7275H0v44.2676h17.5v-6.3242H7.75ZM7.75,6.3232h12.6479c2.1079,0,3.7202.4561,4.8359,1.3643,1.1162.9102,1.6743,2.4805,1.6743,4.7119,0,1.9844-.6201,3.5029-1.8604,4.5576-1.2397,1.0537-2.7896,1.5801-4.6499,1.5801H7.75V6.3232Z"/>
        <path class="cls-3" d="M56.606,38.874c-.9922.4551-2.2319.6816-3.7202.6816-1.9429,0-3.4517-.5781-4.5259-1.7363-1.0752-1.1562-1.6118-3.1406-1.6118-5.9521v-1.8828c-.3177.2639-.6046.5625-.8521.9053-1.0757,1.4883-1.6123,3.5967-1.6123,6.3242v6.2449c1.8336,1.1135,4.283,1.677,7.3623,1.677,1.7769,0,3.5234-.4863,5.2388-1.457.0167-.0094.0303-.0212.0469-.0306v-4.9441c-.109.0563-.2118.1178-.3257.17Z"/>
        <path class="cls-3" d="M43.23,28.4102c1.0317-1.4236,2.2099-2.5702,3.5181-3.4731v-12.7231h-7.0679v12.1759c1.6654.8684,2.8486,2.2081,3.5498,4.0204Z"/>
        <path class="cls-3" d="M67.8281,12.2139h-7.0684v13.0151c.1405.1086.2859.2117.4189.3286,1.8804,1.6543,2.8213,4.4238,2.8213,8.3086v10.4014h3.8281V12.2139Z"/>
        <path class="cls-5" d="M51.104,28.6582c1.3638,0,2.438.207,3.2236.6201.7847.4131,1.374,1.002,1.7671,1.7666.3926.7656.6299,1.6738.7129,2.7285.0825,1.0537.124,2.2217.124,3.5029v1.4276c.8404-.4342,1.5433-.9822,2.0923-1.6591.6201-.7646,1.064-1.6836,1.333-2.7598.2686-1.0742.4028-2.2314.4028-3.4717v-5.5845c-1.8474-1.427-4.3367-2.1509-7.4858-2.1509-2.356,0-4.3198.4756-5.8901,1.4258-.2184.1321-.4246.2874-.6357.4331v5.0474c1.0614-.8809,2.5106-1.3262,4.356-1.3262Z"/>
        <path class="cls-5" d="M39.6802,32.5498v-8.16c-.0056-.0029-.01-.007-.0156-.0099-1.6738-.8682-3.4824-1.3018-5.4248-1.3018-.2803,0-.5268.0312-.7932.0441.3967.3878.7618.8099,1.0876,1.2743,1.355,1.9348,2.0505,4.3442,2.0986,7.2195.3792,1.0155.5831,2.2688.5831,3.8v20.584h7.0679v-12.5413c-.6767-.4109-1.2758-.8912-1.7827-1.4539-1.8813-2.0869-2.8208-5.2393-2.8208-9.4551Z"/>
        <path class="cls-5" d="M24.3818,28.4102h-.186v-3.9399c-.8223-.2208-1.7239-.353-2.7437-.353h-3.9521v13.8262h3.9521c1.1685,0,2.2065-.1509,3.1157-.4507v-.5269c0-1.3223.1958-2.5.5889-3.5342.3926-1.0322.9087-1.9004,1.5498-2.6035.5922-.6492,1.277-1.1515,2.0461-1.5186-.2531-1.415-.8555-2.5583-1.8137-3.4248-.0748-.0676-.1689-.114-.2473-.1777-.1931.1752-.3932.3403-.574.5332-.6201.6611-1.1992,1.3848-1.7358,2.1699Z"/>
        <path class="cls-5" d="M60.8838,39.8037h-.124c-.8593,1.5967-2.1381,2.8768-3.8281,3.8444v12.3519h7.0684v-11.7324h-3.1162v-4.4639Z"/>
        <path class="cls-5" d="M17.5,44.2676v11.7324h7.0679v-12.0144c-1.3011.1833-2.7058.282-4.2319.282h-2.8359Z"/>
        <path class="cls-3" d="M24.1958,24.4702v-.5239h-6.6958v.1709h3.9521c1.0197,0,1.9213.1322,2.7437.353Z"/>
        <path class="cls-2" d="M33.4466,23.1222c-.9518.046-1.8418.1493-2.617.3593-.9917.2686-1.8706.6299-2.6348,1.085-.542.3223-1.0341.715-1.5031,1.1406.0783.0637.1724.1101.2473.1777.9581.8665,1.5605,2.0098,1.8137,3.4248.0629-.03.1223-.0657.1863-.0938.8467-.3721,1.7251-.5576,2.6348-.5576,2.1489,0,3.627.5684,4.4331,1.7051.2532.3571.4523.7876.6259,1.2527-.048-2.8752-.7435-5.2847-2.0986-7.2195-.3257-.4644-.6909-.8865-1.0876-1.2743Z"/>
        <path class="cls-4" d="M21.4521,37.9434h-3.9521v6.3242h2.8359c1.5261,0,2.9308-.0986,4.2319-.282v-6.4929c-.9092.2998-1.9473.4507-3.1157.4507Z"/>
        <path class="cls-4" d="M45.896,30.8896c.2475-.3428.5343-.6414.8521-.9053v-5.0474c-1.3082.903-2.4864,2.0496-3.5181,3.4731-.7012-1.8123-1.8844-3.152-3.5498-4.0204v8.16c0,4.2158.9395,7.3682,2.8208,9.4551.5069.5626,1.106,1.043,1.7827,1.4539v-6.2449c0-2.7275.5366-4.8359,1.6123-6.3242Z"/>
        <path class="cls-2" d="M61.1787,25.5576c-.133-.1169-.2784-.22-.4189-.3286v5.5845c0,1.2402-.1343,2.3975-.4028,3.4717-.269,1.0762-.7129,1.9951-1.333,2.7598-.549.6769-1.2519,1.2249-2.0923,1.6591v4.9441c1.6901-.9675,2.9689-2.2477,3.8281-3.8444h.124v4.4639h3.1162v-10.4014c0-3.8848-.9409-6.6543-2.8213-8.3086Z"/>
        <path class="cls-1" d="M85.3731,36.9971c1.1567-.1025,2.1797-.2793,3.0688-.5273.8887-.248,1.5908-.6299,2.1084-1.1465.4401-.4406.6813-1.0808.7463-1.897-.0892-.1089-.1752-.2197-.2815-.3188-.6196-.5781-1.416-1.043-2.3867-1.3945-.9717-.3506-2.0771-.6514-3.3169-.8994-1.2402-.248-2.5015-.5166-3.7822-.8057-.4504-.0984-.8862-.2142-1.3245-.3271-.1355.0747-.2833.1348-.4117.2178-1.2817.8271-2.0054,2.1074-2.1699,3.8438h0v.2334c.1725,1.7271.7551,3.0144,1.7357,3.8752.7827-.1282,1.5679-.239,2.3562-.3264,1.2808-.248,2.5005-.4238,3.6582-.5273Z"/>
        <path class="cls-1" d="M84.7534,45.1357c-2.0259,0-3.8965-.2275-5.6113-.6826-.5596-.1482-1.086-.3311-1.5972-.5299-.2441.2804-.4614.59-.6346.9479-.3101.6416-.4653,1.416-.4653,2.3252,0,.7852.2271,1.4473.6821,1.9834.4546.5381,1.002.9609,1.6431,1.2715.6406.3096,1.3428.5264,2.1079.6504.7646.124,1.457.1865,2.0771.1865.7847,0,1.6323-.1025,2.542-.3105.9087-.2061,1.7671-.5576,2.5728-1.0537.8062-.4961,1.4775-1.126,2.0151-1.8906.5366-.7646.8062-1.7051.8062-2.8213v-.9233c-.365.1064-.7352.2052-1.1158.2886-1.6953.3721-3.3696.5586-5.022.5586Z"/>
        <path class="cls-3" d="M85.3115,30.8135c1.2397.248,2.3452.5488,3.3169.8994.9707.3516,1.7671.8164,2.3867,1.3945.1063.0991.1923.21.2815.3188.0112-.1411.0286-.2761.0286-.4282,0-.9092-.2173-1.6523-.6514-2.2324-.4336-.5781-.9712-1.0225-1.6118-1.333-.6411-.3096-1.3545-.5156-2.1392-.6191-.7856-.1035-1.5293-.1553-2.2319-.1553-1.785,0-3.2703.353-4.4862,1.0225.4383.1129.8741.2288,1.3245.3271,1.2808.2891,2.542.5576,3.7822.8057Z"/>
        <path class="cls-3" d="M79.9171,23.5742c.3384-.0659.6797-.1205,1.0214-.1733-.6891-.3046-1.2698-.6641-1.7344-1.0815-.5996-.5361-.8989-1.2402-.8989-2.1074,0-.7031.2065-1.2715.6201-1.7051.4126-.4346.9194-.7646,1.519-.9922.5986-.2266,1.2397-.3818,1.9219-.4648s1.271-.124,1.7671-.124c1.5703,0,2.9653.2891,4.1851.8682,1.2188.5791,1.9937,1.7148,2.3247,3.4092h7.3784c-.2075-1.7764-.7134-3.2949-1.519-4.5566-.8062-1.2598-1.8193-2.2832-3.0381-3.0693-1.2197-.7842-2.5835-1.3525-4.0923-1.7041-1.5093-.3516-3.0903-.5273-4.7427-.5273-1.4473,0-2.9663.1455-4.5571.4336-1.5918.29-3.0381.7969-4.3398,1.5195-1.3022.7236-2.3774,1.6738-3.2241,2.8516-.8477,1.1777-1.271,2.6348-1.271,4.3711,0,1.6123.2886,2.9668.8682,4.0615.4148.7861.9351,1.4667,1.5525,2.05.5187-.4958,1.0821-.9414,1.702-1.3235,1.3428-.8262,2.8618-1.4043,4.5571-1.7354Z"/>
        <path class="cls-3" d="M82.211,41.8643c-.7437.124-1.4673.2998-2.1699.5264-.7031.2285-1.3232.5381-1.8599.9307-.2373.1732-.4435.3804-.6364.6019.5112.1989,1.0377.3817,1.5972.5299,1.7148.4551,3.5854.6826,5.6113.6826,1.6523,0,3.3267-.1865,5.022-.5586.3806-.0834.7508-.1821,1.1158-.2886v-4.3462c-1.0752.7031-2.3975,1.126-3.9683,1.2705-1.5713.1455-3.1416.3623-4.7119.6514Z"/>
        <path class="cls-3" d="M98.1763,30.752c-.1633-.2928-.3433-.569-.5342-.834.2068.7498.317,1.5667.317,2.46v6.8368c.7321-1.2579,1.1161-2.7485,1.1161-4.495,0-1.5703-.3003-2.8926-.8989-3.9678Z"/>
        <path class="cls-5" d="M84.8774,24.5518c1.2397.248,2.5205.5176,3.8438.8057,1.2808.29,2.542.6416,3.7822,1.0537,1.2397.4141,2.3452.9717,3.3169,1.6748.7063.5116,1.3118,1.1238,1.8218,1.832-.1854-.6725-.4471-1.2919-.7988-1.8486-.7441-1.1787-1.7266-2.1396-2.9453-2.8838-1.2197-.7432-2.5942-1.2803-4.123-1.6113-1.5293-.3301-3.0796-.4961-4.6499-.4961-1.4228,0-2.8173.1111-4.1866.3228.199.088.404.1729.6216.2515.9707.3516,2.0771.6514,3.3174.8994Z"/>
        <path class="cls-5" d="M91.2966,33.4263c-.065.8162-.3062,1.4564-.7463,1.897-.5176.5166-1.2197.8984-2.1084,1.1465-.8892.248-1.9121.4248-3.0688.5273-1.1577.1035-2.3774.2793-3.6582.5273-.7883.0874-1.5735.1982-2.3562.3264.1932.1696.3962.3286.6208.4646,1.3638.8271,2.9961,1.2402,4.8979,1.2402.6606,0,1.415-.0518,2.2627-.1553.8467-.1025,1.6431-.2988,2.3872-.5889.5314-.2064.9695-.5061,1.3638-.8497v-2.5645h1.1146c-.0007-.02.0025-.0374.0016-.0575-.0344-.7534-.279-1.3867-.7107-1.9136Z"/>
        <path class="cls-2" d="M94.3945,42.7793c1.2428-.7417,2.2661-1.6946,3.0929-2.8369h-6.5963v4.3462c1.2597-.3673,2.4289-.8679,3.5034-1.5093Z"/>
        <path class="cls-4" d="M74.6782,42.377c.8491.6265,1.8108,1.1356,2.8666,1.5463.1929-.2216.399-.4287.6364-.6019.5366-.3926,1.1567-.7021,1.8599-.9307.7026-.2266,1.4263-.4023,2.1699-.5264,1.5703-.2891,3.1406-.5059,4.7119-.6514,1.5708-.1445,2.8931-.5674,3.9683-1.2705v-1.9806c-.3943.3436-.8324.6433-1.3638.8497-.7441.29-1.5405.4863-2.3872.5889-.8477.1035-1.6021.1553-2.2627.1553-1.9019,0-3.5342-.4131-4.8979-1.2402-.2245-.136-.4276-.295-.6208-.4646-.6945.1136-1.387.2405-2.0764.3865-1.4678.3096-2.79.8164-3.9683,1.5186-.2597.155-.504.3282-.7417.5093.5923.7966,1.2862,1.507,2.1059,2.1118Z"/>
        <path class="cls-2" d="M77.7163,28.9531c.8039.2732,1.639.5088,2.4885.7275,1.2159-.6694,2.7012-1.0225,4.4862-1.0225.7026,0,1.4463.0518,2.2319.1553.7847.1035,1.498.3096,2.1392.6191.6406.3105,1.1782.7549,1.6118,1.333.4341.5801.6514,1.3232.6514,2.2324,0,.1521-.0174.2871-.0286.4282.4317.5269.6763,1.1602.7107,1.9136.0009.0201-.0023.0375-.0016.0575h5.9533v-3.0194c0-.8933-.1102-1.7102-.317-2.46-.5099-.7083-1.1155-1.3204-1.8218-1.832-.9717-.7031-2.0771-1.2607-3.3169-1.6748-1.2402-.4121-2.5015-.7637-3.7822-1.0537-1.3232-.2881-2.604-.5576-3.8438-.8057-1.2402-.248-2.3467-.5479-3.3174-.8994-.2176-.0786-.4226-.1635-.6216-.2515-.3417.0529-.683.1074-1.0214.1733-1.6953.3311-3.2144.9092-4.5571,1.7354-.6199.3821-1.1833.8276-1.702,1.3235.2431.2297.4977.4479.7722.6462.9707.7031,2.0664,1.2617,3.2861,1.6738Z"/>
        <path class="cls-6" d="M77.2823,38.2373c.6894-.146,1.382-.2728,2.0764-.3865-.9806-.8608-1.5631-2.1482-1.7357-3.8752v-.2334h0c.1646-1.7363.8882-3.0166,2.1699-3.8438.1284-.083.2762-.1431.4117-.2178-.8494-.2188-1.6846-.4543-2.4885-.7275-1.2197-.4121-2.3154-.9707-3.2861-1.6738-.2745-.1984-.5291-.4165-.7722-.6462-.6052.5786-1.1474,1.2284-1.6149,1.9626-.8677,1.3643-1.3638,3.0801-1.4878,5.1465v.2334h0c.041,1.9014.4233,3.5449,1.147,4.9287.253.4851.5511.9319.8702,1.3608.2377-.181.482-.3542.7417-.5093,1.1782-.7021,2.5005-1.209,3.9683-1.5186Z"/>
        <path class="cls-5" d="M97.4874,39.9424h.4716v-.7277c-.0649.1116-.1149.2333-.1856.3409-.0887.1353-.1918.2566-.286.3867Z"/>
        <path class="cls-5" d="M90.8912,37.9618c.1578-.1376.3293-.2614.4653-.4208.4641-.5461.6777-1.2622.6493-2.1437h-1.1146v2.5645Z"/>
        <path class="cls-2" d="M92.0057,35.3973c.0284.8815-.1852,1.5975-.6493,2.1437-.1359.1594-.3074.2832-.4653.4208v1.9806h6.5963c.0942-.1301.1973-.2515.286-.3867.0707-.1077.1207-.2294.1856-.3409v-3.8174h-5.9533Z"/>
        <path class="cls-1" d="M123.9995,50.2959c1.1157-.6602,2.0352-1.5186,2.7588-2.5732.7227-1.0537,1.2402-2.252,1.5503-3.5957.3096-1.3428.4648-2.7178.4648-4.123,0-1.4463-.186-2.8516-.5581-4.2158s-.9297-2.5732-1.6738-3.627-1.6743-1.9004-2.79-2.542c-.7744-.4446-1.634-.7244-2.5674-.8604v22.4475c1.0668-.1323,2.0081-.4316,2.8154-.9104Z"/>
        <path class="cls-1" d="M110.9175,40.0039c0,1.6123.1958,3.1104.5889,4.4951.3926,1.3857.9814,2.5732,1.7671,3.5654.051.0645.1083.1206.1606.1833v-16.7974c-.0839.1035-.1741.198-.2539.3074-1.5093,2.0674-2.2627,4.8154-2.2627,8.2461Z"/>
        <path class="cls-3" d="M144,6.6953V0h-30.5659v25.2961c.5072-.3882,1.0419-.7393,1.6372-1.009,1.7769-.8057,3.6987-1.209,5.7661-1.209,2.5205,0,4.7217.4443,6.603,1.333.1304.0616.2473.1372.3746.2021h13.3949v-6.3232h-20.0259V6.6953h22.8159Z"/>
        <path class="cls-3" d="M116.0942,50.4199c1.0947.5791,2.3657.8682,3.813.8682.4461,0,.8688-.0312,1.2769-.0818v-22.4475c-.412-.0601-.834-.1006-1.2769-.1006-2.8182,0-4.9706.9386-6.4731,2.7922v16.7974c.7526.9017,1.6357,1.6316,2.6602,2.1721Z"/>
        <path class="cls-1" d="M113.3042,54.1094c-.8057-.6406-1.478-1.3955-2.0146-2.2637h-.124v4.1543h2.2686v-1.8007c-.0418-.0323-.0884-.057-.1299-.09Z"/>
        <path class="cls-1" d="M86.272,55.9385c-.0775.0234-.153.039-.2302.0615h4.8494v-2.5605c-1.2998,1.1118-2.8294,1.9565-4.6191,2.499Z"/>
        <path class="cls-5" d="M86.272,55.9385c1.7897-.5425,3.3193-1.3872,4.6191-2.499v2.5605h7.0679v-16.0576h-.4716c-.8268,1.1423-1.8501,2.0952-3.0929,2.8369-1.0745.6414-2.2437,1.142-3.5034,1.5093v.9233c0,1.1162-.2695,2.0566-.8062,2.8213-.5376.7646-1.209,1.3945-2.0151,1.8906-.8057.4961-1.6641.8477-2.5728,1.0537-.9097.208-1.7573.3105-2.542.3105-.6201,0-1.3125-.0625-2.0771-.1865-.7651-.124-1.4673-.3408-2.1079-.6504-.6411-.3105-1.1885-.7334-1.6431-1.2715-.4551-.5361-.6821-1.1982-.6821-1.9834,0-.9092.1553-1.6836.4653-2.3252.1732-.3579.3906-.6675.6346-.9479-1.0558-.4106-2.0175-.9198-2.8666-1.5463-.8197-.6049-1.5136-1.3152-2.1059-2.1118-.8402.6401-1.5471,1.438-2.1104,2.4048-.7236,1.2402-1.085,2.8525-1.085,4.8359,0,1.5713.2993,2.9453.8989,4.123.5986,1.1777,1.4048,2.1494,2.418,2.9141.798.6033,1.6954,1.0856,2.6862,1.457h10.6617c.0772-.0225.1528-.0381.2302-.0615Z"/>
        <path class="cls-5" d="M126.9789,56c.4036-.1575.7997-.3264,1.1744-.5273,1.7363-.9297,3.1719-2.1699,4.3091-3.7197,1.1362-1.5498,1.9839-3.3369,2.542-5.3633.5581-2.0244.8369-4.1123.8369-6.2617,0-2.3555-.3101-4.5664-.9297-6.6338-.6201-2.0664-1.5503-3.875-2.79-5.4248-1.1542-1.4434-2.5979-2.5857-4.3065-3.4561h-6.631v4.1455c.9334.136,1.793.4158,2.5674.8604,1.1157.6416,2.0459,1.4883,2.79,2.542s1.3018,2.2627,1.6738,3.627.5581,2.7695.5581,4.2158c0,1.4053-.1553,2.7803-.4648,4.123-.3101,1.3438-.8276,2.542-1.5503,3.5957-.7236,1.0547-1.6431,1.9131-2.7588,2.5732-.8074.4788-1.7487.7781-2.8154.9104v4.7937h5.7948Z"/>
        <path class="cls-5" d="M111.1655,51.8457h.124c.5366.8682,1.209,1.623,2.0146,2.2637.0414.033.0881.0576.1299.09v-5.9515c-.0523-.0627-.1096-.1189-.1606-.1833-.7856-.9922-1.3745-2.1797-1.7671-3.5654-.3931-1.3848-.5889-2.8828-.5889-4.4951,0-3.4307.7534-6.1787,2.2627-8.2461.0798-.1094.17-.2039.2539-.3074v-6.1543c-1.0071.7708-1.8571,1.7527-2.5166,2.99h-.124v-4.3398h-6.6963v32.0537h7.0684v-4.1543Z"/>
        <path class="cls-3" d="M115.9395,55.6904c-.9023-.3918-1.7336-.8945-2.5054-1.4911v1.8007h3.3496c-.2823-.1006-.5689-.1902-.8442-.3096Z"/>
        <path class="cls-2" d="M115.9395,55.6904c.2753.1194.5619.2089.8442.3096h4.4004v-4.7937c-.4081.0505-.8307.0818-1.2769.0818-1.4473,0-2.7183-.2891-3.813-.8682-1.0245-.5405-1.9075-1.2704-2.6602-2.1721v5.9515c.7717.5966,1.6031,1.0992,2.5054,1.4911Z"/>
        <path class="cls-4" d="M120.8374,23.0781c-2.0674,0-3.9893.4033-5.7661,1.209-.5953.2698-1.13.6208-1.6372,1.009v6.1543c1.5026-1.8536,3.6549-2.7922,6.4731-2.7922.4429,0,.8649.0405,1.2769.1006v-4.1455h6.631c-.1273-.0649-.2442-.1405-.3746-.2021-1.8813-.8887-4.0825-1.333-6.603-1.333Z"/>
      </g>
    </g>
  </g>
</svg>