<?xml version="1.0" encoding="UTF-8"?>
<svg id="_レイヤー_2" data-name="レイヤー_2" xmlns="http://www.w3.org/2000/svg" xmlns:xlink="http://www.w3.org/1999/xlink" viewBox="0 0 144 72">
  <defs>
    <style>
      .cls-1 {
        fill: none;
      }

      .cls-2 {
        fill: #007000;
      }

      .cls-3 {
        fill: #fff;
      }

      .cls-4 {
        fill: #16c000;
      }

      .cls-5 {
        fill: #00b000;
      }

      .cls-6 {
        fill: green;
      }

      .cls-7 {
        fill: url(#_名称未設定グラデーション_22);
      }
    </style>
    <linearGradient id="_名称未設定グラデーション_22" data-name="名称未設定グラデーション 22" x1="75.38" y1="34.6331" x2="75.38" y2="48.2651" gradientUnits="userSpaceOnUse">
      <stop offset=".2" stop-color="green"/>
      <stop offset=".8" stop-color="#00c000"/>
    </linearGradient>
  </defs>
  <g id="_レイヤー_1-2" data-name="レイヤー_1">
    <rect class="cls-3" width="144" height="72"/>
    <path class="cls-1" d="M25.1567,41.4316c-.3931,1.0342-.5889,2.2119-.5889,3.5342v.3931c.9241-.3048,1.715-.7637,2.3711-1.3784,1.3022-1.2188,1.9531-2.9443,1.9531-5.1768,0-.5321-.04-1.0331-.1169-1.5055-.7784.3679-1.4706.8744-2.0687,1.5299-.6411.7031-1.1572,1.5713-1.5498,2.6035Z"/>
    <path class="cls-1" d="M24.1958,36.4102h.186c.5366-.7852,1.1157-1.5088,1.7358-2.1699.2064-.2201.4329-.4115.6553-.6086-.7096-.5985-1.573-1.0255-2.5771-1.2952v4.0737Z"/>
    <path class="cls-1" d="M25.0479,24.8232c1.2402-1.0547,1.8604-2.5732,1.8604-4.5576,0-2.2314-.5581-3.8018-1.6743-4.7119-1.1157-.9082-2.728-1.3643-4.8359-1.3643H7.75v12.2139h12.6479c1.8604,0,3.4102-.5264,4.6499-1.5801Z"/>
    <rect class="cls-1" x="7.75" y="31.9834" width="9.75" height="13.8262"/>
    <path class="cls-1" d="M25.0479,24.957c1.2402-1.0547,1.8604-2.5732,1.8604-4.5576,0-2.2314-.5581-3.8018-1.6743-4.7119-1.1157-.9082-2.728-1.3643-4.8359-1.3643H7.75v12.2139h12.6479c1.8604,0,3.4102-.5264,4.6499-1.5801Z"/>
    <path class="cls-1" d="M24.1958,36.4102h.186c.5366-.7852,1.1157-1.5088,1.7358-2.1699.1808-.1929.3809-.358.574-.5332-.6944-.5659-1.5276-.9768-2.4959-1.2368v3.9399Z"/>
    <rect class="cls-1" x="7.75" y="32.1172" width="9.75" height="13.8262"/>
    <path class="cls-1" d="M25.1567,41.4316c-.3931,1.0342-.5889,2.2119-.5889,3.5342v.5269c.9241-.3048,1.715-.7637,2.3711-1.3784,1.3022-1.2188,1.9531-2.9443,1.9531-5.1768,0-.5789-.0486-1.1199-.1395-1.6279-.7691.3671-1.4539.8694-2.0461,1.5186-.6411.7031-1.1572,1.5713-1.5498,2.6035Z"/>
    <path class="cls-1" d="M56.8076,41.7734c-.083-1.0547-.3203-1.9629-.7129-2.7285-.3931-.7646-.9824-1.3535-1.7671-1.7666-.7856-.4131-1.8599-.6201-3.2236-.6201-1.8454,0-3.2946.4453-4.356,1.3262v1.8828c0,2.8115.5366,4.7959,1.6118,5.9521,1.0742,1.1582,2.583,1.7363,4.5259,1.7363,1.4883,0,2.728-.2266,3.7202-.6816.1139-.0522.2167-.1138.3257-.17v-1.4276c0-1.2812-.0415-2.4492-.124-3.5029Z"/>
    <path class="cls-4" d="M31.5737,36.6582c-.9097,0-1.7881.1855-2.6348.5576-.0641.0281-.1235.0637-.1863.0938.0909.5081.1395,1.0491.1395,1.6279,0,2.2324-.6509,3.958-1.9531,5.1768-.6561.6147-1.447,1.0736-2.3711,1.3784v6.4929c1.1305-.1593,2.1851-.3806,3.146-.679,2.0664-.6406,3.7607-1.5088,5.084-2.6045,1.3228-1.0947,2.2944-2.3965,2.9141-3.9053.6201-1.5088.9302-3.1309.9302-4.8672,0-.1068-.0076-.2081-.0093-.3137-.1736-.4651-.3727-.8956-.6259-1.2527-.8062-1.1367-2.2842-1.7051-4.4331-1.7051Z"/>
    <path class="cls-4" d="M7.75,45.9434v-13.8262h9.75v-.1709h6.6958v.5239c.9683.26,1.8015.6709,2.4959,1.2368.469-.4257.9611-.8184,1.5031-1.1406.7642-.4551,1.6431-.8164,2.6348-1.085.7752-.21,1.6652-.3132,2.617-.3593-1.3153-1.286-3.0168-2.1559-5.1126-2.6007v-.124c2.0249-.8682,3.5854-2.0977,4.6812-3.6885,1.0947-1.5908,1.6431-3.5029,1.6431-5.7354,0-3.6787-1.1992-6.4268-3.5962-8.2461-2.3975-1.8184-5.5801-2.7275-9.5479-2.7275H0v44.2676h17.5v-6.3242H7.75ZM7.75,14.3232h12.6479c2.1079,0,3.7202.4561,4.8359,1.3643,1.1162.9102,1.6743,2.4805,1.6743,4.7119,0,1.9844-.6201,3.5029-1.8604,4.5576-1.2397,1.0537-2.7896,1.5801-4.6499,1.5801H7.75v-12.2139Z"/>
    <path class="cls-4" d="M56.606,46.874c-.9922.4551-2.2319.6816-3.7202.6816-1.9429,0-3.4517-.5781-4.5259-1.7363-1.0752-1.1562-1.6118-3.1406-1.6118-5.9521v-1.8828c-.3177.2639-.6046.5625-.8521.9053-1.0757,1.4883-1.6123,3.5967-1.6123,6.3242v6.2449c1.8336,1.1135,4.283,1.677,7.3623,1.677,1.7769,0,3.5234-.4863,5.2388-1.457.0167-.0094.0303-.0212.0469-.0306v-4.9441c-.109.0563-.2118.1178-.3257.17Z"/>
    <path class="cls-4" d="M43.23,36.4102c1.0317-1.4236,2.2099-2.5702,3.5181-3.4731v-12.7231h-7.0679v12.1759c1.6654.8684,2.8486,2.2081,3.5498,4.0204Z"/>
    <path class="cls-4" d="M67.8281,20.2139h-7.0684v13.0151c.1405.1086.2859.2117.4189.3286,1.8804,1.6543,2.8213,4.4238,2.8213,8.3086v10.4014h3.8281V20.2139Z"/>
    <path class="cls-6" d="M51.104,36.6582c1.3638,0,2.438.207,3.2236.6201.7847.4131,1.374,1.002,1.7671,1.7666.3926.7656.6299,1.6738.7129,2.7285.0825,1.0537.124,2.2217.124,3.5029v1.4276c.8404-.4342,1.5433-.9822,2.0923-1.6591.6201-.7646,1.064-1.6836,1.333-2.7598.2686-1.0742.4028-2.2314.4028-3.4717v-5.5845c-1.8474-1.427-4.3367-2.1509-7.4858-2.1509-2.356,0-4.3198.4756-5.8901,1.4258-.2184.1321-.4246.2874-.6357.4331v5.0474c1.0614-.8809,2.5106-1.3262,4.356-1.3262Z"/>
    <path class="cls-6" d="M39.6802,40.5498v-8.16c-.0056-.0029-.01-.007-.0156-.0099-1.6738-.8682-3.4824-1.3018-5.4248-1.3018-.2803,0-.5268.0312-.7932.0441.3967.3878.7618.8099,1.0876,1.2743,1.355,1.9348,2.0505,4.3442,2.0986,7.2195.3792,1.0155.5831,2.2688.5831,3.8v20.584h7.0679v-12.5413c-.6767-.4109-1.2758-.8912-1.7827-1.4539-1.8813-2.0869-2.8208-5.2393-2.8208-9.4551Z"/>
    <path class="cls-6" d="M24.3818,36.4102h-.186v-3.9399c-.8223-.2208-1.7239-.353-2.7437-.353h-3.9521v13.8262h3.9521c1.1685,0,2.2065-.1509,3.1157-.4507v-.5269c0-1.3223.1958-2.5.5889-3.5342.3926-1.0322.9087-1.9004,1.5498-2.6035.5922-.6492,1.277-1.1515,2.0461-1.5186-.2531-1.415-.8555-2.5583-1.8137-3.4248-.0748-.0676-.1689-.114-.2473-.1777-.1931.1752-.3932.3403-.574.5332-.6201.6611-1.1992,1.3848-1.7358,2.1699Z"/>
    <path class="cls-6" d="M60.8838,47.8037h-.124c-.8593,1.5967-2.1381,2.8768-3.8281,3.8444v12.3519h7.0684v-11.7324h-3.1162v-4.4639Z"/>
    <path class="cls-6" d="M17.5,52.2676v11.7324h7.0679v-12.0144c-1.3011.1833-2.7058.282-4.2319.282h-2.8359Z"/>
    <path class="cls-4" d="M24.1958,32.4702v-.5239h-6.6958v.1709h3.9521c1.0197,0,1.9213.1322,2.7437.353Z"/>
    <path class="cls-2" d="M33.4466,31.1222c-.9518.046-1.8418.1493-2.617.3593-.9917.2686-1.8706.6299-2.6348,1.085-.542.3223-1.0341.715-1.5031,1.1406.0783.0637.1724.1101.2473.1777.9581.8665,1.5605,2.0098,1.8137,3.4248.0629-.03.1223-.0657.1863-.0938.8467-.3721,1.7251-.5576,2.6348-.5576,2.1489,0,3.627.5684,4.4331,1.7051.2532.3571.4523.7876.6259,1.2527-.048-2.8752-.7435-5.2847-2.0986-7.2195-.3257-.4644-.6909-.8865-1.0876-1.2743Z"/>
    <path class="cls-5" d="M21.4521,45.9434h-3.9521v6.3242h2.8359c1.5261,0,2.9308-.0986,4.2319-.282v-6.4929c-.9092.2998-1.9473.4507-3.1157.4507Z"/>
    <path class="cls-5" d="M45.896,38.8896c.2475-.3428.5343-.6414.8521-.9053v-5.0474c-1.3082.903-2.4864,2.0496-3.5181,3.4731-.7012-1.8123-1.8844-3.152-3.5498-4.0204v8.16c0,4.2158.9395,7.3682,2.8208,9.4551.5069.5626,1.106,1.043,1.7827,1.4539v-6.2449c0-2.7275.5366-4.8359,1.6123-6.3242Z"/>
    <path class="cls-2" d="M61.1787,33.5576c-.133-.1169-.2784-.22-.4189-.3286v5.5845c0,1.2402-.1343,2.3975-.4028,3.4717-.269,1.0762-.7129,1.9951-1.333,2.7598-.549.6769-1.2519,1.2249-2.0923,1.6591v4.9441c1.6901-.9675,2.9689-2.2477,3.8281-3.8444h.124v4.4639h3.1162v-10.4014c0-3.8848-.9409-6.6543-2.8213-8.3086Z"/>
    <path class="cls-1" d="M85.3731,44.9971c1.1567-.1025,2.1797-.2793,3.0688-.5273.8887-.248,1.5908-.6299,2.1084-1.1465.4401-.4406.6813-1.0808.7463-1.897-.0892-.1089-.1752-.2197-.2815-.3188-.6196-.5781-1.416-1.043-2.3867-1.3945-.9717-.3506-2.0771-.6514-3.3169-.8994-1.2402-.248-2.5015-.5166-3.7822-.8057-.4504-.0984-.8862-.2142-1.3245-.3271-.1355.0747-.2833.1348-.4117.2178-1.2817.8271-2.0054,2.1074-2.1699,3.8438h0v.2334c.1725,1.7271.7551,3.0144,1.7357,3.8752.7827-.1282,1.5679-.239,2.3562-.3264,1.2808-.248,2.5005-.4238,3.6582-.5273Z"/>
    <path class="cls-1" d="M84.7534,53.1357c-2.0259,0-3.8965-.2275-5.6113-.6826-.5596-.1482-1.086-.3311-1.5972-.5299-.2441.2804-.4614.59-.6346.9479-.3101.6416-.4653,1.416-.4653,2.3252,0,.7852.2271,1.4473.6821,1.9834.4546.5381,1.002.9609,1.6431,1.2715.6406.3096,1.3428.5264,2.1079.6504.7646.124,1.457.1865,2.0771.1865.7847,0,1.6323-.1025,2.542-.3105.9087-.2061,1.7671-.5576,2.5728-1.0537.8062-.4961,1.4775-1.126,2.0151-1.8906.5366-.7646.8062-1.7051.8062-2.8213v-.9233c-.365.1064-.7352.2052-1.1158.2886-1.6953.3721-3.3696.5586-5.022.5586Z"/>
    <path class="cls-4" d="M85.3115,38.8135c1.2397.248,2.3452.5488,3.3169.8994.9707.3516,1.7671.8164,2.3867,1.3945.1063.0991.1923.21.2815.3188.0112-.1411.0286-.2761.0286-.4282,0-.9092-.2173-1.6523-.6514-2.2324-.4336-.5781-.9712-1.0225-1.6118-1.333-.6411-.3096-1.3545-.5156-2.1392-.6191-.7856-.1035-1.5293-.1553-2.2319-.1553-1.785,0-3.2703.353-4.4862,1.0225.4383.1129.8741.2288,1.3245.3271,1.2808.2891,2.542.5576,3.7822.8057Z"/>
    <path class="cls-4" d="M79.9171,31.5742c.3384-.0659.6797-.1205,1.0214-.1733-.6891-.3046-1.2698-.6641-1.7344-1.0815-.5996-.5361-.8989-1.2402-.8989-2.1074,0-.7031.2065-1.2715.6201-1.7051.4126-.4346.9194-.7646,1.519-.9922.5986-.2266,1.2397-.3818,1.9219-.4648s1.271-.124,1.7671-.124c1.5703,0,2.9653.2891,4.1851.8682,1.2188.5791,1.9937,1.7148,2.3247,3.4092h7.3784c-.2075-1.7764-.7134-3.2949-1.519-4.5566-.8062-1.2598-1.8193-2.2832-3.0381-3.0693-1.2197-.7842-2.5835-1.3525-4.0923-1.7041-1.5093-.3516-3.0903-.5273-4.7427-.5273-1.4473,0-2.9663.1455-4.5571.4336-1.5918.29-3.0381.7969-4.3398,1.5195-1.3022.7236-2.3774,1.6738-3.2241,2.8516-.8477,1.1777-1.271,2.6348-1.271,4.3711,0,1.6123.2886,2.9668.8682,4.0615.4148.7861.9351,1.4667,1.5525,2.05.5187-.4958,1.0821-.9414,1.702-1.3235,1.3428-.8262,2.8618-1.4043,4.5571-1.7354Z"/>
    <path class="cls-4" d="M82.211,49.8643c-.7437.124-1.4673.2998-2.1699.5264-.7031.2285-1.3232.5381-1.8599.9307-.2373.1732-.4435.3804-.6364.6019.5112.1989,1.0377.3817,1.5972.5299,1.7148.4551,3.5854.6826,5.6113.6826,1.6523,0,3.3267-.1865,5.022-.5586.3806-.0834.7508-.1821,1.1158-.2886v-4.3462c-1.0752.7031-2.3975,1.126-3.9683,1.2705-1.5713.1455-3.1416.3623-4.7119.6514Z"/>
    <path class="cls-4" d="M98.1763,38.752c-.1633-.2928-.3433-.569-.5342-.834.2068.7498.317,1.5667.317,2.46v6.8368c.7321-1.2579,1.1161-2.7485,1.1161-4.495,0-1.5703-.3003-2.8926-.8989-3.9678Z"/>
    <path class="cls-6" d="M94.3945,50.7793c-1.0745.6414-2.2437,1.142-3.5034,1.5093v.9233c0,1.1162-.2695,2.0566-.8062,2.8213-.5376.7646-1.209,1.3945-2.0151,1.8906-.8057.4961-1.6641.8477-2.5728,1.0537-.9097.208-1.7573.3105-2.542.3105-.6201,0-1.3125-.0625-2.0771-.1865-.7651-.124-1.4673-.3408-2.1079-.6504-.6411-.3105-1.1885-.7334-1.6431-1.2715-.4551-.5361-.6821-1.1982-.6821-1.9834,0-.9092.1553-1.6836.4653-2.3252.1732-.3579.3906-.6675.6346-.9479-1.0558-.4106-2.0175-.9198-2.8666-1.5463-.8197-.6049-1.5136-1.3152-2.1059-2.1118-.8402.6401-1.5471,1.438-2.1104,2.4048-.7236,1.2402-1.085,2.8525-1.085,4.8359,0,1.5713.2993,2.9453.8989,4.123.5986,1.1777,1.4048,2.1494,2.418,2.9141,1.0127.7656,2.1797,1.3438,3.5034,1.7363,1.3223.3916,2.7065.5889,4.1538.5889,1.9009,0,3.875-.3105,5.9209-.9297,1.7897-.5425,3.3193-1.3872,4.6191-2.499v2.5605h7.0679v-16.0576h-.4716c-.8268,1.1423-1.8501,2.0952-3.0929,2.8369Z"/>
    <path class="cls-6" d="M84.8774,32.5518c1.2397.248,2.5205.5176,3.8438.8057,1.2808.29,2.542.6416,3.7822,1.0537,1.2397.4141,2.3452.9717,3.3169,1.6748.7063.5116,1.3118,1.1238,1.8218,1.832-.1854-.6725-.4471-1.2919-.7988-1.8486-.7441-1.1787-1.7266-2.1396-2.9453-2.8838-1.2197-.7432-2.5942-1.2803-4.123-1.6113-1.5293-.3301-3.0796-.4961-4.6499-.4961-1.4228,0-2.8173.1111-4.1866.3228.199.088.404.1729.6216.2515.9707.3516,2.0771.6514,3.3174.8994Z"/>
    <path class="cls-6" d="M91.2966,41.4263c-.065.8162-.3062,1.4564-.7463,1.897-.5176.5166-1.2197.8984-2.1084,1.1465-.8892.248-1.9121.4248-3.0688.5273-1.1577.1035-2.3774.2793-3.6582.5273-.7883.0874-1.5735.1982-2.3562.3264.1932.1696.3962.3286.6208.4646,1.3638.8271,2.9961,1.2402,4.8979,1.2402.6606,0,1.415-.0518,2.2627-.1553.8467-.1025,1.6431-.2988,2.3872-.5889.5314-.2064.9695-.5061,1.3638-.8497v-2.5645h1.1146c-.0007-.02.0025-.0374.0016-.0575-.0344-.7534-.279-1.3867-.7107-1.9136Z"/>
    <path class="cls-2" d="M94.3945,50.7793c1.2428-.7417,2.2661-1.6946,3.0929-2.8369h-6.5963v4.3462c1.2597-.3673,2.4289-.8679,3.5034-1.5093Z"/>
    <path class="cls-5" d="M74.6782,50.377c.8491.6265,1.8108,1.1356,2.8666,1.5463.1929-.2216.399-.4287.6364-.6019.5366-.3926,1.1567-.7021,1.8599-.9307.7026-.2266,1.4263-.4023,2.1699-.5264,1.5703-.2891,3.1406-.5059,4.7119-.6514,1.5708-.1445,2.8931-.5674,3.9683-1.2705v-1.9806c-.3943.3436-.8324.6433-1.3638.8497-.7441.29-1.5405.4863-2.3872.5889-.8477.1035-1.6021.1553-2.2627.1553-1.9019,0-3.5342-.4131-4.8979-1.2402-.2245-.136-.4276-.295-.6208-.4646-.6945.1136-1.387.2405-2.0764.3865-1.4678.3096-2.79.8164-3.9683,1.5186-.2597.155-.504.3282-.7417.5093.5923.7966,1.2862,1.507,2.1059,2.1118Z"/>
    <path class="cls-2" d="M77.7163,36.9531c.8039.2732,1.639.5088,2.4885.7275,1.2159-.6694,2.7012-1.0225,4.4862-1.0225.7026,0,1.4463.0518,2.2319.1553.7847.1035,1.498.3096,2.1392.6191.6406.3105,1.1782.7549,1.6118,1.333.4341.5801.6514,1.3232.6514,2.2324,0,.1521-.0174.2871-.0286.4282.4317.5269.6763,1.1602.7107,1.9136.0009.0201-.0023.0375-.0016.0575h5.9533v-3.0194c0-.8933-.1102-1.7102-.317-2.46-.5099-.7083-1.1155-1.3204-1.8218-1.832-.9717-.7031-2.0771-1.2607-3.3169-1.6748-1.2402-.4121-2.5015-.7637-3.7822-1.0537-1.3232-.2881-2.604-.5576-3.8438-.8057-1.2402-.248-2.3467-.5479-3.3174-.8994-.2176-.0786-.4226-.1635-.6216-.2515-.3417.0529-.683.1074-1.0214.1733-1.6953.3311-3.2144.9092-4.5571,1.7354-.6199.3821-1.1833.8276-1.702,1.3235.2431.2297.4977.4479.7722.6462.9707.7031,2.0664,1.2617,3.2861,1.6738Z"/>
    <path class="cls-7" d="M77.2823,46.2373c.6894-.146,1.382-.2728,2.0764-.3865-.9806-.8608-1.5631-2.1482-1.7357-3.8752v-.2334h0c.1646-1.7363.8882-3.0166,2.1699-3.8438.1284-.083.2762-.1431.4117-.2178-.8494-.2188-1.6846-.4543-2.4885-.7275-1.2197-.4121-2.3154-.9707-3.2861-1.6738-.2745-.1984-.5291-.4165-.7722-.6462-.6052.5786-1.1474,1.2284-1.6149,1.9626-.8677,1.3643-1.3638,3.0801-1.4878,5.1465v.2334h0c.041,1.9014.4233,3.5449,1.147,4.9287.253.4851.5511.9319.8702,1.3608.2377-.181.482-.3542.7417-.5093,1.1782-.7021,2.5005-1.209,3.9683-1.5186Z"/>
    <path class="cls-6" d="M97.4874,47.9424h.4716v-.7277c-.0649.1116-.1149.2333-.1856.3409-.0887.1353-.1918.2566-.286.3867Z"/>
    <path class="cls-6" d="M90.8912,45.9618c.1578-.1376.3293-.2614.4653-.4208.4641-.5461.6777-1.2622.6493-2.1437h-1.1146v2.5645Z"/>
    <path class="cls-2" d="M92.0057,43.3973c.0284.8815-.1852,1.5975-.6493,2.1437-.1359.1594-.3074.2832-.4653.4208v1.9806h6.5963c.0942-.1301.1973-.2515.286-.3867.0707-.1077.1207-.2294.1856-.3409v-3.8174h-5.9533Z"/>
    <path class="cls-1" d="M123.9995,58.2959c1.1157-.6602,2.0352-1.5186,2.7588-2.5732.7227-1.0537,1.2402-2.252,1.5503-3.5957.3096-1.3428.4648-2.7178.4648-4.123,0-1.4463-.186-2.8516-.5581-4.2158s-.9297-2.5732-1.6738-3.627-1.6743-1.9004-2.79-2.542c-.7744-.4446-1.634-.7244-2.5674-.8604v22.4475c1.0668-.1323,2.0081-.4316,2.8154-.9104Z"/>
    <path class="cls-1" d="M110.9175,48.0039c0,1.6123.1958,3.1104.5889,4.4951.3926,1.3857.9814,2.5732,1.7671,3.5654.051.0645.1083.1206.1606.1833v-16.7974c-.0839.1035-.1741.198-.2539.3074-1.5093,2.0674-2.2627,4.8154-2.2627,8.2461Z"/>
    <path class="cls-6" d="M121.1841,36.7588c.9334.136,1.793.4158,2.5674.8604,1.1157.6416,2.0459,1.4883,2.79,2.542s1.3018,2.2627,1.6738,3.627.5581,2.7695.5581,4.2158c0,1.4053-.1553,2.7803-.4648,4.123-.3101,1.3438-.8276,2.542-1.5503,3.5957-.7236,1.0547-1.6431,1.9131-2.7588,2.5732-.8074.4788-1.7487.7781-2.8154.9104v5.6245c.2772.0133.5543.0374.8315.0374,2.356,0,4.4019-.4648,6.1377-1.3955,1.7363-.9297,3.1719-2.1699,4.3091-3.7197,1.1362-1.5498,1.9839-3.3369,2.542-5.3633.5581-2.0244.8369-4.1123.8369-6.2617,0-2.3555-.3101-4.5664-.9297-6.6338-.6201-2.0664-1.5503-3.875-2.79-5.4248-1.1542-1.4434-2.5979-2.5857-4.3065-3.4561h-6.631v4.1455Z"/>
    <path class="cls-6" d="M113.2734,56.0645c-.7856-.9922-1.3745-2.1797-1.7671-3.5654-.3931-1.3848-.5889-2.8828-.5889-4.4951,0-3.4307.7534-6.1787,2.2627-8.2461.0798-.1094.17-.2039.2539-.3074v-6.1543c-1.0071.7708-1.8571,1.7527-2.5166,2.99h-.124v-4.3398h-6.6963v40.0537h7.0684v-12.1543h.124c.5366.8682,1.209,1.623,2.0146,2.2637.0414.033.0881.0576.1299.09v-5.9515c-.0523-.0627-.1096-.1189-.1606-.1833Z"/>
    <path class="cls-4" d="M144,14.6953v-6.6953h-30.5659v25.2961c.5072-.3882,1.0419-.7393,1.6372-1.009,1.7769-.8057,3.6987-1.209,5.7661-1.209,2.5205,0,4.7217.4443,6.603,1.333.1304.0616.2473.1372.3746.2021h13.3949v-6.3232h-20.0259v-11.5947h22.8159Z"/>
    <path class="cls-4" d="M116.0942,58.4199c1.0947.5791,2.3657.8682,3.813.8682.4461,0,.8688-.0312,1.2769-.0818v-22.4475c-.412-.0601-.834-.1006-1.2769-.1006-2.8182,0-4.9706.9386-6.4731,2.7922v16.7974c.7526.9017,1.6357,1.6316,2.6602,2.1721Z"/>
    <path class="cls-4" d="M115.9395,63.6904c-.9023-.3918-1.7336-.8945-2.5054-1.4911v9.8007h7.75v-7.1692c-.7564-.0366-1.5128-.1055-2.2686-.2419-1.0337-.1855-2.0259-.4863-2.9761-.8984Z"/>
    <path class="cls-2" d="M119.9072,59.2881c-1.4473,0-2.7183-.2891-3.813-.8682-1.0245-.5405-1.9075-1.2704-2.6602-2.1721v5.9515c.7717.5966,1.6031,1.0992,2.5054,1.4911.9502.4121,1.9424.7129,2.9761.8984.7558.1365,1.5121.2053,2.2686.2419v-5.6245c-.4081.0505-.8307.0818-1.2769.0818Z"/>
    <path class="cls-5" d="M120.8374,31.0781c-2.0674,0-3.9893.4033-5.7661,1.209-.5953.2698-1.13.6208-1.6372,1.009v6.1543c1.5026-1.8536,3.6549-2.7922,6.4731-2.7922.4429,0,.8649.0405,1.2769.1006v-4.1455h6.631c-.1273-.0649-.2442-.1405-.3746-.2021-1.8813-.8887-4.0825-1.333-6.603-1.333Z"/>
    <g>
      <path d="M69.8423,9.8848c-.5278,1.5059-1.0713,2.9463-2.5186,4.3428-.1523-.1943-.376-.3887-.6157-.5107,1.1353-1.0947,1.8389-2.4199,2.2866-4.1123l.8477.2803ZM73.0723,14.0117c-.5356-1.6855-.8872-2.3115-2.2065-4.2129l.6553-.3535c1.5596,2.1396,1.8555,2.917,2.3589,4.2637l-.8076.3027ZM72.4487,9.1787c.2959.2305.6157.5117.8555.7422l-.3838.3457c-.2397-.2227-.5356-.4971-.8555-.7559l.3838-.332ZM73.6401,9.6113c-.2397-.2236-.5518-.4824-.8555-.7061l.3677-.3672c.312.2236.6235.4756.8877.7207l-.3999.3525Z"/>
      <path d="M79.3774,9.251l.1035-.0361.5117.5049c-.1035.1504-.5117.8135-.5996.9502-.2236.3525-.4077.5908-.7593,1.0225.1997.1807,1.0952.9727,1.2632,1.1387.4238.417.6636.6914,1.1592,1.2461l-.7114.4893c-.6157-.7998-1.1436-1.3545-2.1831-2.333-1.2148,1.166-1.8706,1.6348-3.3179,2.2969-.1118-.252-.312-.4756-.5596-.6553,2.0708-.7783,3.3262-1.7354,4.6934-3.9688h-3.8701v-.6553h4.27Z"/>
      <path d="M86.6963,9.417l.144-.0361.4717.5762c-.1997.1582-.2559.2158-.3276.2812-.856.8994-1.3994,1.375-2.5986,2.3184.3755.3389.7915.7422,1.1353,1.1523l-.6719.5049c-.9751-1.167-1.7026-1.8086-2.79-2.5859l.5117-.5117c.4478.3105.8794.6416,1.2949.9727.7437-.5977,1.2075-1.0078,2.1748-2.0098h-5.2368v-.6621h5.8926Z"/>
      <path d="M87.9312,12.29c-.4238-.792-.4717-.8857-.7759-1.3242l.5918-.2891c.3599.5479.4639.7139.8076,1.333l-.6235.2803ZM92.3765,10.7061c-.6396,1.8867-1.2393,3.3779-4.0615,4.293-.064-.209-.1841-.418-.3599-.584,1.7671-.4609,2.9741-1.1445,3.6938-3.9248l.7275.2158ZM89.4419,11.8877c-.2314-.5625-.3838-.8428-.6714-1.3477l.5996-.2373c.3276.6045.4399.792.6797,1.3467l-.6079.2383Z"/>
      <path d="M97.4487,9.3877l.0879-.043.5679.4824c-.6797,1.7646-1.4712,3.8027-4.9253,4.8477-.0957-.2383-.248-.4688-.4717-.6631,3.0063-.7129,3.894-2.5059,4.4297-3.9541h-4.8613v-.6699h5.1729ZM99.1997,8.8115c0,.4111-.3276.7715-.8555.7715-.4717,0-.8472-.3242-.8472-.7715,0-.3164.2637-.7705.8472-.7773.3999,0,.8555.2881.8555.7773ZM98.3442,9.1787c.3042,0,.416-.208.416-.3672,0-.2227-.1919-.3809-.416-.3809-.2559,0-.4155.208-.4155.3809,0,.2383.1997.3672.4155.3672Z"/>
    </g>
    <path d="M104.6914,9.8906h-2.8867v1.3242h2.5273v1h-2.5273v2.4141h-1.1953v-5.75h4.082v1.0117Z"/>
    <g>
      <rect class="cls-1" x="40" y="8.5" width="25.6" height="8"/>
      <g>
        <polygon points="57.8903 10.4969 56.9131 11.6255 56.9131 9.3125 55.8381 9.3125 55.8381 14.1031 56.9131 14.1031 56.9131 12.9715 57.1606 12.7135 57.9389 14.1031 59.248 14.1031 57.9588 11.9284 59.2667 10.4969 57.8903 10.4969"/>
        <path d="M61.1185,10.4969l-.63,2.2511-.6664-2.2511h-1.2064l1.2924,3.6769c-.0021.0139-.0112.0538-.0489.1486-.0487.1221-.089.1628-.1093.1767-.0407.0282-.0933.0467-.1561.055-.073.0096-.1512.0125-.2314.0087l-.218-.0121v.9119l.0935.0061c.096.0063.17.01.22.0111.0484.001.1126.0016.1927.0016.4286,0,.7112-.0877.8639-.2682.1405-.1662.3212-.5696.5524-1.2332l1.2151-3.4829h-1.1635Z"/>
        <polygon points="43.4351 9.2969 42.5818 11.1666 41.6906 9.2969 40.3234 9.2969 41.9869 12.2977 41.9869 14.1031 43.1494 14.1031 43.1494 12.297 44.757 9.2969 43.4351 9.2969"/>
        <path d="M52.0107,10.8525c-.129-.1584-.2761-.2714-.4373-.336-.1571-.0628-.3189-.0946-.4809-.0946-.24,0-.4614.051-.6602.1527-.1417.0768-.2669.1868-.3736.3282-.0651-.1107-.1465-.2066-.2433-.2863l-.0054-.0042c-.177-.1264-.409-.1905-.6893-.1905-.2963,0-.5429.0743-.7327.2206-.05.0383-.1004.0871-.1517.1471v-.2864h-1.0656v3.6h1.1031v-2.15c0-.1687.0205-.2942.0602-.3718.0694-.1304.2081-.1938.4242-.1938.2364,0,.3128.1075.3496.1883.0244.0539.0535.1668.0535.3992v2.1281h1.0969v-2.1281c0-.1374.0213-.2552.0627-.3489.0777-.1692.2107-.248.4185-.248.1752,0,.2859.0579.348.1822.0345.069.052.1612.052.2741v2.2687h1.1122l.0065-2.2469c0-.2286-.0107-.399-.033-.5221-.0363-.1883-.1084-.3503-.2144-.4817Z"/>
        <path d="M64.1531,10.4969v1.9531c0,.2038-.0266.368-.0784.4865-.0955.2088-.2702.3104-.5341.3104-.2624,0-.3469-.1152-.3876-.2018-.0393-.084-.0593-.2169-.0593-.3951v-2.1531h-1.1125v2.1531c0,.4089.0514.7126.1568.9279.1923.3983.5653.6003,1.1088.6003.1854,0,.3506-.025.491-.0744.142-.05.2894-.1429.4369-.2749.0054-.0046.0106-.0093.0159-.0141v.2885h1.0656v-3.6062h-1.1031Z"/>
        <path d="M55.1492,10.6484c-.3025-.1545-.6521-.2328-1.0392-.2328-.6025,0-1.037.1643-1.2912.4883l-.0005.0006c-.1596.2068-.2507.4723-.2706.7892l-.0067.1063h1.0513l.0134-.0844c.0179-.1129.0528-.2022.1028-.2638.0672-.08.1918-.1206.3703-.1206.1696,0,.297.0227.3785.0674.0401.022.0934.0668.0934.2014,0,.0493-.0148.1121-.131.1616-.0425.0187-.1334.0462-.325.0704l-.3035.0375c-.3604.0459-.6281.1215-.8188.2315-.3545.2058-.5342.5408-.5342.9959,0,.3516.1129.6287.3357.8237.2189.1917.4981.2888.8299.2888.2582,0,.4937-.0602.7005-.1793.0871-.0509.1692-.1082.2464-.1707v.2437h1.0875v-2.5281c0-.449-.1645-.7608-.4889-.9266ZM54.3388,13.2117c-.1457.1015-.3002.1508-.4725.1508-.0978,0-.1772-.0262-.2426-.0802l-.0022-.0018c-.0603-.047-.0896-.1286-.0896-.2493,0-.1359.0499-.2287.157-.292.0485-.0286.1521-.0708.3708-.1097l.2-.0375c.1068-.02.1896-.0415.2532-.0658.0115-.0044.0231-.0091.0346-.014v.1638c-.0055.2627-.0757.443-.2087.5357Z"/>
        <path d="M46.4817,10.6484c-.3025-.1545-.6521-.2328-1.0392-.2328-.6025,0-1.037.1643-1.2912.4883l-.0005.0006c-.1596.2068-.2507.4723-.2706.7892l-.0067.1063h1.0513l.0134-.0844c.0179-.1129.0528-.2022.1028-.2638.0672-.08.1918-.1206.3703-.1206.1696,0,.297.0227.3785.0674.0401.022.0934.0668.0934.2014,0,.0493-.0148.1121-.131.1616-.0425.0187-.1334.0462-.325.0704l-.3035.0375c-.3604.0459-.6281.1215-.8188.2315-.3545.2058-.5342.5408-.5342.9959,0,.3516.1129.6287.3357.8237.2189.1917.4981.2888.8299.2888.2582,0,.4937-.0602.7005-.1793.0871-.0509.1692-.1082.2464-.1707v.2437h1.0875v-2.5281c0-.449-.1645-.7608-.4889-.9266ZM45.6713,13.2117c-.1457.1015-.3002.1508-.4725.1508-.0978,0-.1772-.0262-.2426-.0802l-.0022-.0018c-.0603-.047-.0896-.1286-.0896-.2493,0-.1359.0499-.2287.157-.292.0485-.0286.1521-.0708.3708-.1097l.2-.0375c.1068-.02.1896-.0415.2532-.0658.0115-.0044.0231-.0091.0346-.014v.1638c-.0055.2627-.0757.443-.2087.5357Z"/>
      </g>
    </g>
  </g>
</svg>